<?xml version="1.0" encoding="UTF-8" standalone="no"?>
<!-- Generator: Adobe Illustrator 16.0.4, SVG Export Plug-In . SVG Version: 6.00 Build 0)  -->

<svg
   xmlns:dc="http://purl.org/dc/elements/1.1/"
   xmlns:cc="http://creativecommons.org/ns#"
   xmlns:rdf="http://www.w3.org/1999/02/22-rdf-syntax-ns#"
   xmlns:svg="http://www.w3.org/2000/svg"
   xmlns="http://www.w3.org/2000/svg"
   xmlns:sodipodi="http://sodipodi.sourceforge.net/DTD/sodipodi-0.dtd"
   xmlns:inkscape="http://www.inkscape.org/namespaces/inkscape"
   version="1.1"
   id="Layer_1"
   x="0px"
   y="0px"
   width="512px"
   height="512px"
   viewBox="0 0 512 512"
   enable-background="new 0 0 512 512"
   xml:space="preserve"
   sodipodi:docname="account.svg"
   inkscape:version="0.92.2 (5c3e80d, 2017-08-06)"><metadata
     id="metadata11"><rdf:RDF><cc:Work
         rdf:about=""><dc:format>image/svg+xml</dc:format><dc:type
           rdf:resource="http://purl.org/dc/dcmitype/StillImage" /></cc:Work></rdf:RDF></metadata><defs
     id="defs9" /><sodipodi:namedview
     pagecolor="#ffffff"
     bordercolor="#666666"
     borderopacity="1"
     objecttolerance="10"
     gridtolerance="10"
     guidetolerance="10"
     inkscape:pageopacity="0"
     inkscape:pageshadow="2"
     inkscape:window-width="1920"
     inkscape:window-height="1011"
     id="namedview7"
     showgrid="false"
     inkscape:zoom="0.65186406"
     inkscape:cx="91.057533"
     inkscape:cy="443.77013"
     inkscape:window-x="0"
     inkscape:window-y="41"
     inkscape:window-maximized="1"
     inkscape:current-layer="Layer_1" /><path
     fill="#1D2123"
     d="M256.001,271.068c63.147,0,114.346-59.922,114.346-133.839c0-102.503-51.194-133.839-114.346-133.839  c-63.154,0-114.349,31.336-114.349,133.839C141.654,211.146,192.848,271.068,256.001,271.068z"
     id="path2"
     style="fill:#ea262a;fill-opacity:1;opacity:0.626" /><path
     fill="#1D2123"
     d="M508.506,468.062l-57.69-129.957c-2.641-5.946-7.275-10.879-13.046-13.883l-89.53-46.607  c-1.976-1.025-4.365-0.825-6.142,0.518c-25.318,19.153-55.096,29.277-86.097,29.277c-31.007,0-60.778-10.124-86.102-29.277  c-1.779-1.344-4.17-1.542-6.145-0.518l-89.526,46.607c-5.771,3.004-10.402,7.935-13.043,13.883L3.495,468.062  c-3.978,8.959-3.163,19.211,2.181,27.428c5.342,8.219,14.381,13.121,24.181,13.121h452.284c9.802,0,18.843-4.906,24.184-13.121  C511.665,487.273,512.483,477.02,508.506,468.062z"
     id="path4"
     style="fill:#ea262a;fill-opacity:1;opacity:0.626" /><path
     style="opacity:0.62599996;fill:#ea262a;fill-opacity:1;stroke-width:1.53406215"
     d="M 17.499901,505.12065 C 7.771233,500.88311 0.40678526,487.53625 1.8743385,476.80188 2.9844751,468.68181 61.759822,337.19819 66.935441,331.25668 c 2.982039,-3.42332 19.060546,-12.62907 51.577499,-29.53069 25.98464,-13.50627 47.48292,-24.55686 47.77393,-24.55686 0.29102,0 6.53728,3.77204 13.88059,8.38231 26.15361,16.41975 52.52842,23.35347 82.85844,21.78281 26.47305,-1.37093 48.8684,-8.62371 71.16389,-23.04659 l 11.17052,-7.22617 15.59309,7.93298 c 50.82189,25.8556 80.49857,41.99276 83.9055,45.62494 2.14614,2.28802 17.57934,34.99111 34.5164,73.14054 27.45772,61.84642 30.62624,69.83554 30.55378,77.03879 -0.0963,9.57894 -5.91678,19.08729 -14.46883,23.6364 -5.13857,2.73337 -14.39301,2.841 -239.3137,2.78328 -191.059452,-0.0491 -234.82638,-0.43376 -238.646649,-2.09777 z"
     id="path842"
     inkscape:connector-curvature="0" /><path
     style="opacity:0.62599996;fill:#ea262a;fill-opacity:1;stroke-width:1.53406215"
     d="M 47.490167,505.80812 C 14.076303,504.88018 12.341928,504.37468 6.5274551,493.86912 0.56409797,483.09457 0.68167525,479.77877 7.6396488,462.50413 17.172484,438.83686 41.612054,384.00308 55.170014,355.86275 66.776269,331.7733 67.398065,330.84601 75.343008,325.77868 82.62385,321.13491 132.3845,294.59945 157.24377,282.10413 l 9.27252,-4.66077 8.3692,5.4021 c 24.18034,15.60781 47.40103,23.26763 74.33385,24.52055 30.89376,1.43718 55.66337,-5.03055 83.02983,-21.68037 l 13.61609,-8.28406 26.84609,13.92818 c 36.5314,18.95308 62.76347,33.18131 68.12962,36.95339 3.16978,2.22818 7.67526,9.84805 15.52297,26.25321 12.8721,26.90832 43.96613,96.97437 49.2482,110.97393 5.87998,15.58431 4.30189,25.6576 -5.45781,34.83844 -4.74122,4.46 -5.37652,4.60194 -25.11745,5.61205 -23.5536,1.20519 -383.277586,1.07676 -427.546713,-0.15266 z"
     id="path844"
     inkscape:connector-curvature="0" /><path
     style="opacity:0.62599996;fill:#ea262a;fill-opacity:1;stroke-width:1.53406215"
     d="M 75.103286,505.7984 C 32.772413,505.1777 18.14407,504.47829 15.151231,502.93196 12.973898,501.80698 9.2991561,498.01018 6.985137,494.49461 0.16919298,484.13953 1.5004838,476.88343 16.742329,441.31379 32.608121,404.28805 59.530694,345.64875 64.75566,336.7373 c 4.67298,-7.97002 12.084083,-12.56079 64.66676,-40.05756 l 36.67741,-19.17953 10.11148,6.22015 c 25.63124,15.76723 46.09021,22.39343 73.00803,23.64565 30.83171,1.43429 55.68221,-5.04251 83.10451,-21.65958 l 13.54141,-8.20568 19.17578,10.00154 c 78.78452,41.0918 77.10595,40.05574 83.46838,51.51921 6.04213,10.88638 31.16338,65.98896 48.00963,105.30742 13.3549,31.16982 14.84855,38.87828 9.34576,48.23172 -7.25407,12.33019 -7.12101,12.29666 -53.10673,13.38845 -47.90403,1.13732 -296.58027,1.0381 -377.654794,-0.15069 z"
     id="path846"
     inkscape:connector-curvature="0" /><path
     style="opacity:0.62599996;fill:#ea262a;fill-opacity:1;stroke-width:1.53406215"
     d="M 79.705473,505.71261 C 34.854206,505.1133 18.106248,504.39246 15.24676,502.93826 9.3280664,499.92831 4.1654987,491.23064 3.3673714,482.92436 2.7903569,476.91926 3.7353131,472.84033 8.4209368,461.11057 16.977372,439.69078 43.184704,380.90317 55.911346,354.58131 c 9.476725,-19.60022 12.046472,-23.65863 17.090464,-26.99105 7.349672,-4.85571 34.71619,-19.74352 68.06615,-37.02905 l 25.31203,-13.11941 13.54141,8.23515 c 32.01541,19.47005 65.74268,26.06731 101.43981,19.84225 17.14324,-2.98954 33.34766,-9.29732 50.69749,-19.7347 l 13.80656,-8.3058 23.77796,12.31734 c 58.50481,30.30636 72.08974,38.25227 76.42048,44.69881 8.75575,13.0334 59.24948,128.0181 62.02231,141.23769 1.72487,8.22336 1.60657,9.18077 -1.95522,15.8221 -7.31719,13.64371 -5.7635,13.27978 -61.81253,14.47804 -53.98715,1.15418 -268.36694,0.96598 -364.612787,-0.32007 z"
     id="path848"
     inkscape:connector-curvature="0" /><path
     style="opacity:0.62599996;fill:#ea262a;fill-opacity:1;stroke-width:1.53406215"
     d="M 74.336255,505.80601 C 12.420311,504.88973 14.261215,505.17336 7.6551379,495.53241 1.5674546,486.64802 1.7582285,477.79899 8.397229,461.11057 16.902097,439.73192 43.11015,380.93898 55.884629,354.58131 65.676128,334.37845 67.860647,330.986 73.467958,327.27526 80.153634,322.85089 132.86608,294.35873 154.1446,283.66788 l 12.30962,-6.18465 13.76943,8.28351 c 26.07955,15.6891 45.16129,21.07673 75.13194,21.21311 30.75552,0.13995 51.89737,-5.89534 79.0042,-22.55304 l 11.50547,-7.07034 25.31203,13.13587 c 43.75314,22.70604 67.53754,36.17884 72.09127,40.8365 4.62142,4.72691 19.89243,36.47767 43.90512,91.28544 23.53144,53.70934 24.91045,58.89735 18.59233,69.94636 -6.99235,12.22807 -6.95796,12.21935 -52.96893,13.42774 -46.22754,1.21408 -292.10557,1.09559 -378.460825,-0.18237 z"
     id="path850"
     inkscape:connector-curvature="0" /><path
     style="opacity:0.62599996;fill:#ea262a;fill-opacity:1;stroke-width:1.53406215"
     d="M 246.91825,270.13459 C 225.84884,266.6216 216.00367,263.03579 200.89638,253.37247 164.5127,230.09978 142.66172,185.80762 142.63122,135.26838 142.59478,74.886361 161.63559,34.451716 198.88781,15.803135 215.21022,7.6320854 228.62559,5.0160793 254.58856,4.941449 c 39.81793,-0.1144564 60.14484,6.920125 81.4501,28.18764 18.67142,18.638353 27.9603,40.879107 32.17324,77.033701 6.26945,53.80331 -8.51107,99.88095 -42.10199,131.25118 -12.85737,12.00736 -30.04416,21.83897 -44.67526,25.55624 -9.90986,2.51777 -28.28893,4.20272 -34.5164,3.16438 z"
     id="path852"
     inkscape:connector-curvature="0" /><path
     style="opacity:0.62599996;fill:#ea262a;fill-opacity:1;stroke-width:1.53406215"
     d="m 231.00701,266.47295 c -55.82694,-15.04644 -92.23547,-74.93392 -87.69303,-144.24409 3.99035,-60.886352 25.42813,-95.790691 68.25308,-111.127587 12.96381,-4.6427272 13.44314,-4.6941114 43.78853,-4.6941114 27.88462,0 31.72998,0.3276963 42.18671,3.5950914 15.76301,4.925436 26.81622,12.000745 39.2916,25.151078 18.47118,19.470534 27.34812,41.98485 31.27526,79.322499 6.67587,63.47159 -19.51763,119.22875 -67.81527,144.35595 -6.58449,3.42563 -16.62795,7.21511 -22.3188,8.42108 -14.21246,3.01183 -34.12644,2.68116 -46.96808,-0.77991 z"
     id="path854"
     inkscape:connector-curvature="0" /><path
     style="opacity:0.62599996;fill:#ea262a;fill-opacity:1;stroke-width:1.53406215"
     d="m 231.90826,266.50989 c -68.07614,-18.4926 -104.01955,-98.3361 -82.48474,-183.228839 9.64063,-38.004509 32.854,-63.436628 67.58052,-74.0399203 13.05402,-3.9858761 62.83865,-4.049003 77.29694,-0.098013 21.10762,5.7680453 40.12734,19.9721633 53.48451,39.9427783 23.43708,35.041351 27.81732,101.978244 9.54544,145.869274 -13.64231,32.77031 -42.46542,60.80143 -72.06113,70.08108 -14.96187,4.69124 -39.06619,5.35692 -53.36154,1.47364 z"
     id="path856"
     inkscape:connector-curvature="0" /><path
     style="opacity:0.62599996;fill:#ea262a;fill-opacity:1;stroke-width:1.53406215"
     d="m 234.64575,267.21977 c -13.56808,-3.05895 -32.43513,-12.68084 -44.59583,-22.74316 -33.04565,-27.34343 -50.99173,-77.29808 -46.08751,-128.28899 2.32631,-24.187398 6.66818,-41.174954 14.81649,-57.969457 11.60249,-23.913911 31.88785,-40.970656 58.22514,-48.9580292 13.03571,-3.9533719 62.85602,-4.0166472 77.29694,-0.098173 13.39637,3.6350392 25.91092,10.5948062 36.84836,20.4926132 24.8328,22.472408 37.13877,56.648791 37.20004,103.312716 0.0586,44.58523 -11.92661,76.11701 -39.3588,103.5492 -22.49588,22.49587 -40.82865,31.07069 -69.0328,32.28881 -10.18504,0.4399 -18.69175,-0.093 -25.31203,-1.58553 z"
     id="path858"
     inkscape:connector-curvature="0" /><path
     style="opacity:0.62599996;fill:#ea262a;fill-opacity:1;stroke-width:1.53406215"
     d="M 232.14933,266.57111 C 200.27951,257.90138 175.28513,236.5215 159.35195,204.30118 146.07736,177.4571 140.90232,148.01741 143.92754,116.55499 146.28789,92.007193 150.59641,75.08311 158.7789,58.218163 170.38139,34.304252 190.66675,17.247507 217.00404,9.2601338 230.03975,5.3067619 279.86006,5.2434866 294.30098,9.1619614 307.69735,12.797 320.2119,19.756767 331.14934,29.654574 355.7798,51.94386 368.1384,86.000486 368.36153,132.20026 c 0.21708,44.94868 -12.15327,77.41752 -40.0358,105.08326 -22.1142,21.94226 -40.50817,30.34189 -69.13498,31.5706 -12.76806,0.54803 -18.37455,0.0747 -27.04142,-2.28301 z"
     id="path860"
     inkscape:connector-curvature="0" /><path
     style="opacity:0.62599996;fill:#f67615;fill-opacity:1;stroke-width:1.53406215"
     d="m 239.24794,268.54425 c -23.06506,-4.49397 -48.06244,-19.5894 -63.56795,-38.38746 -24.13564,-29.26077 -36.05522,-72.25597 -31.76452,-114.57806 5.9745,-58.930692 29.44169,-93.068472 73.08857,-106.3221318 13.40746,-4.0712628 64.82415,-4.0722582 78.23717,-0.00151 28.08394,8.5232508 52.18809,31.4512638 62.85349,59.7865928 12.71782,33.788159 13.81637,85.040209 2.52615,117.855809 -12.43891,36.15433 -43.20611,68.05981 -75.35105,78.13876 -9.81534,3.07756 -37.42832,5.18237 -46.02186,3.508 z"
     id="path862"
     inkscape:connector-curvature="0" /><path
     style="opacity:0.62599996;fill:#f67615;fill-opacity:1;stroke-width:1.53406215"
     d="M 72.802193,505.82853 C 10.534314,504.86883 12.10709,505.17483 6.1458221,492.86048 0.04367286,480.25513 1.5428668,474.94612 28.282928,414.4677 36.490036,395.90555 48.601687,369.58355 55.197704,355.97438 l 11.992759,-24.74396 11.243208,-6.90378 c 11.138861,-6.8397 52.025719,-28.80251 75.673819,-40.649 l 12.2725,-6.14789 15.20936,8.91399 c 47.87115,28.05655 102.09454,27.99696 149.38886,-0.1642 l 14.88705,-8.86441 29.91421,15.43617 c 32.22511,16.62862 50.12995,26.41551 61.88626,33.82739 6.89207,4.34518 8.1811,6.23908 17.89539,26.29293 5.7576,11.88575 17.33677,37.14284 25.7315,56.12686 29.09717,65.80101 31.04403,72.41628 24.56282,83.46216 -6.95153,11.84744 -7.93656,12.13814 -45.33497,13.37981 -37.80387,1.25511 -304.00552,1.17827 -387.718277,-0.11199 z"
     id="path864"
     inkscape:connector-curvature="0" /><path
     style="opacity:0.62599996;fill:#f67615;fill-opacity:1;stroke-width:1.53406215"
     d="M 104.25047,505.78013 C 7.8207695,504.76407 11.988803,505.35533 6.1873581,491.8695 1.7515635,481.55822 2.4332035,476.84474 11.723683,453.58628 19.384653,434.40727 41.329995,385.38205 57.12866,352.15298 l 9.934485,-20.89503 14.671291,-8.63452 c 8.069208,-4.74898 30.362764,-16.88662 49.541224,-26.97254 l 34.86994,-18.33803 6.25345,3.87689 c 11.84155,7.3413 36.95275,18.94257 45.96604,21.23612 41.30444,10.51045 81.35678,3.72286 119.79402,-20.30124 l 7.63446,-4.7717 28.416,14.73132 c 39.25615,20.35103 64.62016,34.79457 68.54762,39.03445 4.50561,4.86399 17.63863,31.48011 36.50461,73.98221 19.20655,43.26935 26.26836,60.79937 28.65145,71.12351 1.68431,7.29679 1.53909,8.44764 -1.92474,15.25444 -6.64246,13.05314 -7.23769,13.17542 -70.38061,14.45903 -60.98008,1.23966 -205.25165,1.17096 -331.35743,-0.15776 z"
     id="path866"
     inkscape:connector-curvature="0" /><path
     style="opacity:0.62599996;fill:#f67615;fill-opacity:1;stroke-width:1.53406215"
     d="M 124.96031,505.78247 C 52.620249,504.98301 20.472359,504.10573 16.418881,502.82049 7.0395557,499.84657 1.6418113,486.44152 4.7844029,473.92681 8.3755792,459.62569 40.976805,384.69955 60.966566,344.80551 l 7.233441,-14.43595 16.107652,-9.16251 c 8.859209,-5.03938 30.911531,-16.96845 49.005161,-26.50904 l 32.89751,-17.34654 6.22107,3.87327 c 13.66139,8.50565 37.66092,19.01622 50.7195,22.21256 19.20215,4.70009 46.70923,4.70818 65.86192,0.0194 13.9426,-3.41332 35.32941,-12.69617 49.14477,-21.33108 l 7.63295,-4.77076 25.34939,13.1971 c 33.90021,17.64872 62.5628,33.61325 68.78917,38.31428 3.79823,2.86775 8.14423,10.1221 17.14227,28.61396 23.1912,47.66014 47.87006,105.54496 50.7766,119.09765 1.37107,6.39307 1.13812,8.26945 -1.80356,14.52763 -1.85791,3.9525 -4.93787,8.20843 -6.84439,9.45763 -1.90652,1.24919 -9.50965,2.89476 -16.89585,3.65682 -19.03048,1.96343 -235.44385,2.90977 -357.34386,1.56258 z"
     id="path868"
     inkscape:connector-curvature="0" /><path
     style="opacity:0.62599996;fill:#f67615;fill-opacity:1;stroke-width:1.53406215"
     d="M 116.52296,505.73317 C 51.50974,504.9525 20.387599,504.03976 16.418881,502.79734 7.0509105,499.86468 1.6452142,486.46595 4.7711151,473.92681 7.996658,460.98798 32.542482,403.90675 57.149247,352.12166 l 9.943598,-20.92637 10.524985,-6.11928 c 17.594864,-10.22974 36.88776,-20.70731 63.45013,-34.45843 l 25.31203,-13.10384 15.73786,8.84289 c 29.16435,16.38705 55.86301,22.37701 87.96213,19.7347 22.2362,-1.83043 46.5997,-10.54448 69.64903,-24.91124 l 6.13625,-3.82476 25.31203,13.16941 c 32.86065,17.09683 62.409,33.55302 68.49957,38.14907 5.70522,4.30526 15.4941,22.90191 35.85273,68.11202 18.338,40.72293 30.22288,70.02105 32.26283,79.53295 1.43606,6.69614 1.22811,8.45522 -1.74801,14.78666 -1.85791,3.9525 -4.93683,8.20774 -6.84207,9.45611 -1.90523,1.24836 -9.57238,2.88123 -17.0381,3.62861 -19.09502,1.91157 -252.81132,2.89785 -365.64128,1.54301 z"
     id="path870"
     inkscape:connector-curvature="0" /><path
     style="opacity:0.62599996;fill:#f67615;fill-opacity:1;stroke-width:1.53406215"
     d="M 104.25047,505.66493 C 43.673743,504.90191 19.255546,504.08732 15.603179,502.70771 8.8195959,500.14532 3.9351324,490.7116 4.0697669,480.43237 c 0.071734,-5.47688 2.3062094,-13.15391 7.8138131,-26.84609 9.293296,-23.1036 29.807785,-69.20371 44.435611,-99.8556 10.637141,-22.28961 10.721583,-22.40881 19.719194,-27.836 11.132382,-6.71483 59.607785,-32.93641 77.302075,-41.81464 l 13.03953,-6.54268 13.03952,7.458 c 27.0984,15.49901 48.04312,21.32096 76.70311,21.32096 28.74728,0 50.12913,-5.94734 76.70311,-21.33489 l 13.03953,-7.55048 27.61312,14.29018 c 34.49317,17.85071 59.38054,31.71312 66.00177,36.76338 6.15039,4.69113 18.37992,28.22007 39.80822,76.58879 21.29625,48.07068 28.8762,67.96621 29.04464,76.23502 0.19483,9.56463 -5.96058,18.97945 -14.01548,21.43696 -12.12503,3.69928 -210.36967,5.18313 -390.06706,2.91965 z"
     id="path872"
     inkscape:connector-curvature="0" /><path
     style="opacity:0.62599996;fill:#f67615;fill-opacity:1;stroke-width:1.53406215"
     d="M 101.94937,505.73082 C 10.625263,504.62553 11.981384,504.79211 6.8068261,494.04415 2.495956,485.09014 3.2765278,475.00024 9.5261008,458.89403 23.027869,424.09767 65.068907,333.04043 69.074198,329.91801 72.781417,327.02797 111.2449,305.92311 139.5339,291.25688 l 26.84609,-13.91817 13.57055,7.69101 c 27.47408,15.5707 47.92787,21.2866 76.17208,21.2866 28.21197,0 50.63064,-6.26101 76.70311,-21.42137 l 13.03953,-7.58209 29.14718,15.10464 c 34.10868,17.67578 57.71147,30.91377 64.917,36.4097 5.86747,4.47534 24.53344,41.43035 46.74386,92.54378 16.65106,38.31955 23.17098,57.20492 21.91586,63.48058 -1.62007,8.10028 -7.88513,15.94717 -14.27163,17.87498 -12.55662,3.79027 -205.41439,5.26695 -392.36816,3.00428 z"
     id="path874"
     inkscape:connector-curvature="0" /><path
     style="opacity:0.62599996;fill:#f67615;fill-opacity:1;stroke-width:1.53406215"
     d="m 236.17981,267.76242 c -16.03955,-4.36057 -33.80807,-13.5763 -46.26945,-23.99786 -32.87383,-27.49268 -50.81051,-77.53072 -45.76541,-127.67195 5.46575,-54.321909 26.62328,-88.310164 64.57136,-103.729848 12.27273,-4.9868599 38.50412,-7.0267351 66.65774,-5.1836169 17.5346,1.1479292 20.27822,1.7479523 30.76546,6.7283169 28.02185,13.307516 45.92046,34.722498 54.88966,65.673305 8.06584,27.833573 9.16902,69.066193 2.56701,95.946153 -7.75366,31.56889 -29.9174,62.39682 -57.27782,79.66869 -10.56131,6.66707 -24.59373,11.0129 -40.99436,12.69592 -18.2034,1.86802 -21.85766,1.85182 -29.14419,-0.12911 z"
     id="path876"
     inkscape:connector-curvature="0" /><path
     style="opacity:0.62599996;fill:#f67615;fill-opacity:1;stroke-width:1.53406215"
     d="m 230.8106,265.92262 c -58.95883,-19.63887 -91.73564,-76.13029 -86.34895,-148.82397 3.9312,-53.051738 26.60057,-89.547098 65.20947,-104.98055 10.27783,-4.1084444 10.82809,-4.1576426 46.4515,-4.1532228 40.50791,0.00503 43.54591,0.6292185 62.41272,12.8234238 31.22289,20.180329 46.45929,52.177205 49.09642,103.103909 2.42896,46.90674 -10.29492,83.69881 -39.04352,112.89722 -21.26517,21.59789 -39.79418,29.64762 -73.23265,31.81514 -11.89218,0.77087 -15.29552,0.399 -24.54499,-2.68195 z"
     id="path878"
     inkscape:connector-curvature="0" /><path
     style="opacity:0.62599996;fill:#f67615;fill-opacity:1;stroke-width:1.53406215"
     d="m 230.8106,265.9411 c -41.79244,-13.99276 -69.6098,-44.92067 -82.34617,-91.55413 -3.18353,-11.65631 -3.54939,-16.21281 -3.44891,-42.95374 0.10288,-27.37695 0.45972,-31.20855 4.20719,-45.174369 10.18089,-37.941529 30.01676,-62.22762 60.44841,-74.010142 9.60417,-3.7185448 12.65394,-4.0809352 39.80669,-4.7300565 34.76682,-0.8311452 46.08093,0.7078978 60.35834,8.2104645 33.29954,17.498413 50.97043,46.21234 56.57244,91.926133 3.29808,26.91314 0.99886,58.21029 -5.69381,77.50463 -14.03661,40.46627 -47.5422,73.6113 -81.40172,80.52573 -5.583,1.1401 -16.36386,2.47295 -23.95747,2.96189 -11.90739,0.76671 -15.28369,0.39442 -24.54499,-2.70641 z"
     id="path880"
     inkscape:connector-curvature="0" /><path
     style="opacity:0.62599996;fill:#f67615;fill-opacity:1;stroke-width:1.53406215"
     d="m 234.32965,267.32995 c -44.70953,-12.88782 -76.98581,-50.00708 -87.48001,-100.60616 -2.57183,-12.40036 -2.90173,-18.48052 -2.20616,-40.65978 0.81495,-25.98589 2.71266,-37.277095 9.39841,-55.919721 10.95824,-30.55614 39.20561,-56.235398 67.46256,-61.3291965 11.8443,-2.1351364 57.56241,-2.1162359 69.16486,0.028594 26.12549,4.8295575 53.63656,28.5909735 65.25464,56.3606755 8.84705,21.146315 11.25184,35.881078 11.18453,68.529958 -0.0514,24.92914 -0.53955,30.9232 -3.3731,41.41968 -12.13293,44.94463 -47.42252,82.83667 -84.34128,90.56107 -15.68902,3.28258 -36.67067,4.03445 -45.06445,1.61488 z"
     id="path882"
     inkscape:connector-curvature="0" /><path
     style="opacity:0.62599996;fill:#f67615;fill-opacity:1;stroke-width:1.53406215"
     d="m 235.41278,267.86474 c -3.37493,-0.83072 -13.06225,-4.88393 -21.52736,-9.00711 -24.23087,-11.80235 -41.56089,-29.27722 -54.30732,-54.76123 -10.42052,-20.83379 -14.12061,-36.26494 -15.0343,-62.70021 -1.72255,-49.8375 9.00629,-84.243281 33.9682,-108.930924 12.54286,-12.405046 29.02563,-21.461892 43.3192,-23.8027479 12.20145,-1.9982309 57.69635,-1.8784974 68.83811,0.1811681 23.86195,4.4111218 50.31832,25.7264688 63.00448,50.7613938 9.80746,19.354075 15.40359,52.62203 14.01789,83.33361 -1.08025,23.94221 -4.35377,37.93633 -13.27738,56.76031 -16.04829,33.85313 -44.36482,59.09471 -73.85372,65.83378 -12.98682,2.96788 -37.43429,4.23062 -45.1478,2.33196 z"
     id="path884"
     inkscape:connector-curvature="0" /><path
     style="opacity:0.62599996;fill:#f67615;fill-opacity:1;stroke-width:1.53406215"
     d="m 231.57763,266.73642 c -18.90577,-6.29965 -33.86396,-15.63511 -48.32296,-30.15848 -15.83625,-15.90674 -24.2456,-29.52717 -31.3018,-50.69882 -6.79938,-20.40108 -8.32511,-33.14374 -7.34556,-61.34917 1.02862,-29.618838 4.27546,-44.381112 14.30978,-65.061782 12.52677,-25.817607 37.23619,-46.078327 61.90038,-50.7557926 10.48088,-1.9876596 60.0966,-1.9938839 70.56363,-0.00885 23.05253,4.3718206 49.78246,26.2137936 62.29269,50.9015566 16.74051,33.035815 19.07769,96.011478 4.88608,131.656568 -14.90018,37.42482 -45.89247,66.85847 -78.31681,74.37818 -16.71479,3.87642 -38.82763,4.3747 -48.66543,1.09659 z"
     id="path886"
     inkscape:connector-curvature="0" /></svg>