<?xml version="1.0" encoding="UTF-8" standalone="no"?>
<!-- Generator: Adobe Illustrator 16.0.0, SVG Export Plug-In . SVG Version: 6.00 Build 0)  -->

<svg
   xmlns:dc="http://purl.org/dc/elements/1.1/"
   xmlns:cc="http://creativecommons.org/ns#"
   xmlns:rdf="http://www.w3.org/1999/02/22-rdf-syntax-ns#"
   xmlns:svg="http://www.w3.org/2000/svg"
   xmlns="http://www.w3.org/2000/svg"
   xmlns:sodipodi="http://sodipodi.sourceforge.net/DTD/sodipodi-0.dtd"
   xmlns:inkscape="http://www.inkscape.org/namespaces/inkscape"
   version="1.1"
   id="Layer_1"
   x="0px"
   y="0px"
   width="512px"
   height="512px"
   viewBox="0 0 512 512"
   enable-background="new 0 0 512 512"
   xml:space="preserve"
   sodipodi:docname="map.svg"
   inkscape:version="0.92.2 (5c3e80d, 2017-08-06)"><metadata
     id="metadata9"><rdf:RDF><cc:Work
         rdf:about=""><dc:format>image/svg+xml</dc:format><dc:type
           rdf:resource="http://purl.org/dc/dcmitype/StillImage" /></cc:Work></rdf:RDF></metadata><defs
     id="defs7" /><sodipodi:namedview
     pagecolor="#ffffff"
     bordercolor="#666666"
     borderopacity="1"
     objecttolerance="10"
     gridtolerance="10"
     guidetolerance="10"
     inkscape:pageopacity="0"
     inkscape:pageshadow="2"
     inkscape:window-width="1920"
     inkscape:window-height="1011"
     id="namedview5"
     showgrid="false"
     inkscape:zoom="1.4142136"
     inkscape:cx="333.20034"
     inkscape:cy="377.83255"
     inkscape:window-x="0"
     inkscape:window-y="41"
     inkscape:window-maximized="1"
     inkscape:current-layer="Layer_1" /><path
     d="M208.938,331.094l11.875,29.688c-11.5,4.594-22.969,8.094-34.156,10.438l-6.531-31.313  C189.5,337.938,199.188,334.969,208.938,331.094z M113.719,369.438c11.719,3.375,24.063,5.188,36.688,5.375l0.5-32  c-9.813-0.156-19.344-1.531-28.344-4.125L113.719,369.438z M365.688,313.594c9.219,1.813,18.219,4.969,26.75,9.375l14.688-28.438  c-11.25-5.781-23.094-9.938-35.25-12.313L365.688,313.594z M298.938,287.344l9.563,30.5c9.781-3.063,19.438-5,28.75-5.75  l-2.563-31.875C323,281.156,310.969,283.563,298.938,287.344z M247.563,311.406c-3.594,2.25-7.125,4.313-10.594,6.25l15.563,27.938  c3.906-2.188,7.906-4.5,11.906-7c5.5-3.406,10.875-6.438,16.156-9.125l-14.531-28.5C260.063,304.031,253.875,307.5,247.563,311.406z   M336,112c0,13.063-3.125,25.438-8.688,36.313L256,288c0,0-71.875-140.844-72.156-141.438C178.813,136.125,176,124.375,176,112  c0-44.188,35.813-80,80-80S336,67.813,336,112z M304,112c0-26.5-21.5-48-48-48s-48,21.5-48,48s21.5,48,48,48S304,138.5,304,112z   M416,192h-75.063l-16.344,32h68.344l34.531,103.625l-11.031,12.188c11.75,10.625,17.844,20.406,17.875,20.438l3.375-2.031  L467.594,448H44.375l32.063-96.094c1.125,0.781,2,1.531,3.25,2.313l17-27.063c-3.813-2.406-6.938-4.781-9.688-7L119.063,224h68.375  c-6.781-13.25-12.125-23.719-16.344-32H96L0,480h512L416,192z"
     id="path2"
     style="fill:#ea262a;fill-opacity:1;opacity:0.626" /><path
     style="opacity:0.62599996;fill:#ea262a;fill-opacity:1;stroke-width:0.70710677"
     d="M 0.75105297,478.4931 C 0.92982738,478.00696 22.468755,413.41276 48.615337,334.95042 L 96.154575,192.29163 h 37.357415 37.3574 l 7.83851,15.18036 c 4.31117,8.34919 7.8385,15.34646 7.8385,15.54949 0,0.20302 -15.19396,0.45177 -33.76435,0.55277 l -33.76435,0.18363 -16.03237,47.72971 c -8.817803,26.25134 -16.049942,48.04791 -16.071431,48.43681 -0.03154,0.57148 5.16067,4.69468 8.600483,6.82972 0.705318,0.43778 -14.31409,25.52236 -15.849827,26.47149 -0.363184,0.22447 -1.137183,0.0124 -1.719995,-0.47132 -0.626341,-0.51982 -1.300405,-0.617 -1.648407,-0.23765 -0.808817,0.88165 -32.102169,95.05229 -31.714995,95.43947 0.170785,0.17078 95.463532,0.23044 211.761652,0.13256 l 211.45112,-0.17794 -14.67816,-44.4082 c -8.07299,-24.42451 -14.87218,-44.60222 -15.10933,-44.83937 -0.23714,-0.23714 -1.17228,-0.0935 -2.07809,0.31923 -1.51166,0.68876 -1.91829,0.38375 -4.95102,-3.71372 -1.81724,-2.45527 -5.70236,-7.0135 -8.63359,-10.12942 l -5.32952,-5.66531 4.09036,-4.47149 c 2.24969,-2.45933 4.6286,-5.11239 5.28647,-5.89571 1.14323,-1.36123 0.43739,-3.72125 -15.96697,-53.38652 l -17.16307,-51.96234 -34.04615,-0.18356 -34.04615,-0.18356 7.94025,-15.53723 7.94027,-15.53724 37.41761,0.16445 37.4176,0.16444 47.61199,142.83426 c 26.18659,78.55884 47.61198,143.07349 47.61198,143.3659 0,0.2924 -114.90354,0.53164 -255.3412,0.53164 -203.974914,0 -255.27581322,-0.17781 -255.01615703,-0.88388 z"
     id="path4537"
     inkscape:connector-curvature="0" /><path
     style="opacity:0.62599996;fill:#ea262a;fill-opacity:1;stroke-width:0.70710677"
     d="m 24.088614,478.847 c -12.542307,-0.1082 -22.8041937,-0.43008 -22.8041937,-0.71529 0,-0.28522 21.3982287,-64.71592 47.5516187,-143.17933 l 47.55162,-142.66075 h 37.187731 37.18775 l 7.60882,14.89635 c 4.18485,8.19299 7.39164,15.11379 7.1262,15.37957 -0.26545,0.26577 -15.36088,0.57457 -33.54541,0.68621 l -33.06278,0.20298 -16.03518,47.88028 c -8.819357,26.33415 -16.022902,48.19848 -16.00789,48.58738 0.01499,0.38891 1.929772,2.13144 4.255015,3.8723 2.325236,1.74085 4.227707,3.35534 4.227707,3.58777 0,0.35873 -11.054915,18.95725 -14.175539,23.84856 -0.758776,1.18932 -1.581678,1.55893 -3.148577,1.41421 l -2.121321,-0.19592 -15.710224,47.0226 c -8.640623,25.86243 -15.72053,47.42035 -15.733125,47.90648 -0.01827,0.70519 42.807114,0.88388 211.831234,0.88388 169.18526,0 211.78866,-0.17802 211.52908,-0.88388 -0.17878,-0.48613 -6.92754,-20.70984 -14.99724,-44.94157 l -14.67218,-44.0577 -1.89191,0.41554 c -1.70223,0.37387 -2.39804,-0.20694 -6.94047,-5.79334 -2.77671,-3.41488 -6.50667,-7.62746 -8.2888,-9.3613 -1.78213,-1.73383 -3.23582,-3.48392 -3.23042,-3.88909 0.006,-0.40515 2.23278,-3.25086 4.94974,-6.32379 2.71697,-3.07293 4.93994,-5.65052 4.93994,-5.728 0,-0.46985 -33.98461,-103.08801 -34.31986,-103.63045 -0.24841,-0.40194 -13.72376,-0.66637 -33.95768,-0.66637 -18.45021,0 -33.53368,-0.23865 -33.51882,-0.53033 0.0149,-0.29168 3.43549,-7.21249 7.6014,-15.37957 l 7.57438,-14.84925 14.84924,-0.17004 c 8.16708,-0.0935 25.00545,0.0656 37.41859,0.35356 l 22.56935,0.52359 47.5142,142.54387 47.51421,142.54389 -43.50683,0.46846 c -40.25064,0.43341 -391.597853,0.38466 -443.319376,-0.0615 z"
     id="path4539"
     inkscape:connector-curvature="0" /><path
     style="opacity:0.62599996;fill:#ea262a;fill-opacity:1;stroke-width:0.70710677"
     d="M 43.710827,478.72735 C 5.9912805,478.35886 1.6460346,478.20089 1.715879,477.20071 1.758727,476.58712 23.077401,412.23157 49.090711,334.18836 L 96.387637,192.29163 h 37.142703 37.14271 l 7.66842,15.02602 7.66842,15.02602 -5.91893,0.46015 c -3.25542,0.25308 -18.3817,0.49173 -33.61396,0.53033 l -27.69503,0.0702 -15.96881,47.90652 c -8.782854,26.34859 -15.962102,48.2247 -15.953885,48.61359 0.0082,0.38889 1.917397,2.1314 4.24264,3.87226 2.325236,1.74085 4.227707,3.2998 4.227707,3.46435 0,0.74141 -14.136705,23.95194 -15.049849,24.70978 -0.563811,0.46792 -1.783472,0.76745 -2.710347,0.66563 -1.625808,-0.17862 -2.239414,1.47311 -17.399738,46.83746 -8.642973,25.86243 -15.72288,47.42035 -15.733126,47.90648 -0.01486,0.70518 42.719478,0.88388 211.364568,0.88388 116.26075,0 211.51962,-0.23864 211.68636,-0.53033 0.16675,-0.29168 -6.32812,-20.4177 -14.43302,-44.7245 -8.10491,-24.30679 -14.74562,-44.31082 -14.75713,-44.45338 -0.0115,-0.14256 -0.83219,-0.10413 -1.82374,0.0854 -1.52158,0.29088 -2.43159,-0.37988 -5.83363,-4.29993 -2.21695,-2.55452 -6.01956,-6.79649 -8.45024,-9.4266 -2.43068,-2.63011 -4.41942,-5.00584 -4.41942,-5.27941 0,-0.27356 1.83253,-2.59308 4.0723,-5.15451 2.23976,-2.56142 4.47131,-5.17204 4.95898,-5.80137 0.74084,-0.95603 -1.89452,-9.58403 -16.0221,-52.4553 -9.29983,-28.22108 -17.11861,-51.65057 -17.37508,-52.06554 -0.31978,-0.51743 -11.00655,-0.75449 -34.01214,-0.75449 -18.45021,0 -33.53919,-0.23865 -33.53106,-0.53033 0.008,-0.29168 3.44983,-7.21249 7.64822,-15.37957 l 7.63345,-14.84925 37.07628,0.25514 c 20.39195,0.14032 37.27585,0.45852 37.51976,0.7071 0.95923,0.9776 94.94734,284.30609 94.47057,284.78287 -0.61923,0.61922 -407.52218,0.91323 -466.498663,0.33706 z"
     id="path4541"
     inkscape:connector-curvature="0" /><path
     style="opacity:0.62599996;fill:#ea262a;fill-opacity:1;stroke-width:0.70710677"
     d="M 48.188741,478.74224 C 22.844619,478.50798 1.9332951,478.1409 1.7191311,477.9265 1.5049672,477.71211 22.715575,413.35655 48.853816,334.91416 l 47.52407,-142.62253 h 37.133524 37.13351 l 7.6738,14.89048 c 4.22059,8.18976 7.45464,15.10964 7.18677,15.37751 -0.26788,0.26787 -15.40622,0.60258 -33.64076,0.74379 l -33.15373,0.25674 -16.01837,48.14376 -16.018377,48.14374 2.383141,2.16474 c 1.310728,1.19061 3.316401,2.83736 4.457049,3.65946 l 2.073916,1.49473 -7.205036,12.02927 c -3.962768,6.6161 -7.637849,12.38848 -8.166843,12.82751 -0.529001,0.43903 -1.720179,0.71492 -2.647054,0.6131 -1.625985,-0.17863 -2.240595,1.47782 -17.480018,47.11118 -12.438,37.24469 -15.593828,47.42369 -14.849242,47.89566 1.030093,0.65292 421.538654,0.87426 422.190704,0.2222 0.21933,-0.21933 -6.27753,-20.4249 -14.43745,-44.90128 l -14.83624,-44.5025 h -1.99952 c -1.65585,0 -3.19521,-1.34685 -8.956,-7.83596 -3.82606,-4.30978 -7.56142,-8.58666 -8.3008,-9.50419 l -1.34434,-1.66824 4.98821,-5.73491 4.98822,-5.73491 -1.75528,-5.79732 c -4.82824,-15.94675 -32.34333,-97.79005 -33.02776,-98.2407 -0.43394,-0.28573 -15.48687,-0.52438 -33.45095,-0.53033 -17.96408,-0.006 -32.81616,-0.26033 -33.00462,-0.56527 -0.18846,-0.30494 3.06451,-7.22575 7.22885,-15.37957 l 7.5715,-14.82514 37.10038,0.26129 c 20.4052,0.1437 37.30506,0.4619 37.55522,0.7071 0.81337,0.79723 94.92196,284.31395 94.50997,284.72594 -0.56447,0.56447 -406.31212,0.91811 -462.071519,0.40273 z"
     id="path4543"
     inkscape:connector-curvature="0" /><path
     style="opacity:0.62599996;fill:#ea262a;fill-opacity:1;stroke-width:0.70710677"
     d="M 43.94603,478.74311 C 20.935321,478.50838 1.935449,478.14317 1.7240905,477.93154 1.512732,477.7199 22.72193,413.36434 48.855642,334.91919 L 96.37148,192.29163 h 37.17383 37.17383 l 7.63432,14.89285 c 4.19888,8.19106 7.41536,15.11187 7.14773,15.37957 -0.26762,0.2677 -15.40795,0.59947 -33.64516,0.73728 l -33.15857,0.25055 -15.99733,48.16096 -15.997338,48.16096 2.368871,2.15167 c 1.30288,1.18341 3.308595,2.82899 4.457149,3.65685 l 2.088277,1.50519 -7.178668,11.98501 c -7.484549,12.49567 -8.685499,14.04719 -10.37221,13.39994 -0.55988,-0.21485 -1.332048,-0.0118 -1.715915,0.45122 -0.914784,1.10338 -10.744337,29.77389 -22.470829,65.54212 l -9.388814,28.63782 3.322398,0.46838 c 1.827318,0.25762 96.803059,0.49627 211.057199,0.53033 179.11352,0.0534 207.78805,-0.0768 208.12121,-0.94497 0.21251,-0.5538 -6.18326,-20.75938 -14.21284,-44.90128 l -14.59923,-43.89436 h -1.97627 c -1.6356,0 -3.3082,-1.49321 -9.70268,-8.66205 -4.24951,-4.76414 -7.97308,-9.06316 -8.27459,-9.55338 -0.35294,-0.57385 1.12577,-2.84064 4.15141,-6.36397 4.28539,-4.99027 4.66599,-5.69077 4.31813,-7.94751 -0.20982,-1.36118 -7.76977,-24.80598 -16.7999,-52.09955 -13.95846,-42.18946 -16.63794,-49.68363 -17.8836,-50.01815 -0.80585,-0.21641 -15.84487,-0.39782 -33.42004,-0.40313 -17.57516,-0.005 -32.10066,-0.2483 -32.27888,-0.53998 -0.17822,-0.29168 3.06453,-7.21249 7.20611,-15.37957 l 7.53015,-14.84925 37.1231,0.25878 c 20.41771,0.14233 37.32814,0.46053 37.57874,0.70711 0.82172,0.80854 94.91486,284.32277 94.49938,284.73825 -0.56553,0.56553 -415.148573,0.91564 -466.30442,0.39379 z"
     id="path4545"
     inkscape:connector-curvature="0" /><path
     style="opacity:0.62599996;fill:#ea262a;fill-opacity:1;stroke-width:0.70710677"
     d="m 389.48604,321.33023 c -3.07889,-1.76946 -12.29831,-5.17242 -17.37669,-6.41387 -2.69345,-0.65843 -5.13427,-1.40633 -5.42406,-1.662 -0.45864,-0.40464 4.82396,-29.68254 5.47266,-30.33123 0.45623,-0.45624 8.45169,1.44581 14.85322,3.53344 7.17626,2.34029 19.44543,7.56699 19.44543,8.28381 0,1.05352 -13.84127,27.22341 -14.49568,27.4072 -0.38891,0.10923 -1.50261,-0.25858 -2.47488,-0.81735 z"
     id="path4547"
     inkscape:connector-curvature="0" /><path
     style="opacity:0.62599996;fill:#ea262a;fill-opacity:1;stroke-width:0.70710677"
     d="m 386.75402,319.91279 c -2.08598,-0.97106 -7.4158,-2.90666 -11.84404,-4.30133 -4.42825,-1.39467 -8.05034,-2.90399 -8.0491,-3.35405 0.008,-2.91227 4.89417,-28.20205 5.59118,-28.93898 1.19171,-1.25997 21.67346,5.27887 30.42301,9.71261 l 3.66913,1.85928 -5.09216,9.68862 c -7.46751,14.20809 -9.18136,17.114 -10.08895,17.10632 -0.44902,-0.004 -2.5231,-0.80141 -4.60907,-1.77247 z"
     id="path4549"
     inkscape:connector-curvature="0" /><path
     style="opacity:0.62599996;fill:#ea262a;fill-opacity:1;stroke-width:0.70710677"
     d="m 388.07183,320.44677 c -1.36118,-0.62152 -6.61145,-2.58585 -11.66726,-4.36518 l -9.19239,-3.23514 0.22307,-3.17853 c 0.12269,-1.7482 1.23638,-8.26971 2.47487,-14.49225 l 2.25181,-11.31371 3.24049,0.10435 c 3.74918,0.12072 17.9446,4.70678 25.79211,8.33256 l 5.3897,2.49019 -4.0371,7.61792 c -7.63466,14.40647 -10.48736,19.28506 -11.24306,19.22751 -0.41655,-0.0317 -1.87106,-0.5662 -3.23224,-1.18772 z"
     id="path4551"
     inkscape:connector-curvature="0" /><path
     style="opacity:0.62599996;fill:#ea262a;fill-opacity:1;stroke-width:0.70710677"
     d="m 308.26131,315.92519 c -1.71699,-4.51603 -8.79587,-28.1918 -8.51355,-28.47412 1.52186,-1.52187 33.25173,-7.63191 34.28212,-6.60152 0.23466,0.23466 0.86611,5.94051 1.40324,12.67968 0.53712,6.73917 1.10292,13.57499 1.25733,15.19071 l 0.28075,2.93767 -5.73916,0.81116 c -5.49231,0.77626 -18.53168,3.64738 -21.10891,4.64793 -0.88492,0.34355 -1.40464,0.011 -1.86182,-1.19151 z"
     id="path4553"
     inkscape:connector-curvature="0" /><path
     style="opacity:0.62599996;fill:#ea262a;fill-opacity:1;stroke-width:0.70710677"
     d="m 308.70097,316.28006 c -1.49855,-2.61873 -9.00735,-28.45182 -8.38226,-28.83814 2.55948,-1.58185 32.48094,-7.17948 33.37635,-6.24396 0.52054,0.54386 2.75797,23.3122 2.75797,28.06545 0,2.14971 -0.23875,2.53019 -1.59099,2.53544 -0.87504,0.003 -6.20486,0.98347 -11.84404,2.17795 -14.26473,3.02152 -13.93625,2.96868 -14.31703,2.30326 z"
     id="path4555"
     inkscape:connector-curvature="0" /><path
     style="opacity:0.62599996;fill:#ea262a;fill-opacity:1;stroke-width:0.70710677"
     d=""
     id="path4557"
     inkscape:connector-curvature="0" /><path
     style="opacity:0.62599996;fill:#ea262a;fill-opacity:1;stroke-width:0.70710677"
     d=""
     id="path4559"
     inkscape:connector-curvature="0" /><path
     style="opacity:0.62599996;fill:#ea262a;fill-opacity:1;stroke-width:0.70710677"
     d="m 248.21443,272.06536 c -22.69368,-44.02901 -65.27912,-127.98999 -66.53599,-131.18163 -5.71971,-14.52438 -6.74854,-33.85223 -2.625,-49.313965 8.04828,-30.178077 32.74679,-52.734213 63.64352,-58.123031 4.7245,-0.824018 9.05232,-1.023978 16.32788,-0.754404 12.99932,0.481651 21.04469,2.525425 32.52691,8.262859 17.22868,8.608817 30.01454,22.060952 37.563,39.520432 7.70294,17.816796 8.55505,38.353119 2.35966,56.868959 -1.4404,4.30483 -14.5276,30.7037 -38.63269,77.92802 -20.0499,39.27978 -36.54519,71.51868 -36.6562,71.642 -0.11101,0.12332 -3.698,-6.55884 -7.97109,-14.84924 z m 20.0028,-113.43735 c 9.47808,-2.41012 19.73606,-9.16303 25.66353,-16.89451 6.8583,-8.9456 9.43265,-16.14375 9.8627,-27.57717 0.368,-9.78351 -0.61895,-15.234284 -4.08777,-22.576041 -5.7979,-12.271291 -16.16645,-21.339121 -29.31714,-25.639359 -4.73438,-1.548128 -6.98291,-1.854492 -13.78858,-1.878703 -11.3842,-0.0405 -19.43625,2.397508 -28.48891,8.625897 -4.52496,3.113257 -11.37756,10.75079 -14.1833,15.807928 -4.26303,7.683805 -5.76461,13.815268 -5.76461,23.538958 0,7.45486 0.24921,9.24563 2.05218,14.74661 5.64653,17.22798 20.88768,30.17475 38.88025,33.02726 4.69661,0.74459 13.80612,0.18349 19.17165,-1.18087 z"
     id="path4561"
     inkscape:connector-curvature="0" /><path
     style="opacity:0.62599996;fill:#ea262a;fill-opacity:1;stroke-width:0.70710677"
     d="m 252.1037,279.15476 c -4.98138,-9.37348 -29.96639,-58.27459 -52.69041,-103.12659 -12.62271,-24.91434 -18.23337,-36.73397 -19.46805,-41.01219 -10.99251,-38.089421 6.72175,-77.935069 42.12662,-94.757672 12.7663,-6.065903 25.77137,-8.378878 40.17916,-7.145935 11.52361,0.98613 18.20044,2.767785 27.80103,7.418457 19.88554,9.632866 33.54862,24.789818 40.96825,45.447589 5.34344,14.877241 5.551,35.413101 0.50913,50.375431 -1.99261,5.91331 -68.23617,137.89092 -74.33799,148.10421 l -1.20104,2.01032 z m 16.11353,-120.44911 c 16.927,-4.28688 31.16467,-18.95523 34.72651,-35.77699 1.66808,-7.87799 1.05154,-20.69029 -1.29804,-26.974353 -5.4296,-14.521729 -17.28474,-25.774431 -32.01426,-30.387392 -3.88895,-1.217935 -6.69248,-1.55055 -13.08147,-1.552006 -14.84324,-0.0034 -24.08857,3.779789 -34.31013,14.039632 -10.6493,10.689185 -14.06792,18.925356 -14.10441,33.980469 -0.0201,8.28011 0.17635,9.77098 1.97913,15.0224 5.39157,15.70541 19.86506,28.77997 35.82881,32.36577 5.46479,1.22751 15.92415,0.89057 22.27386,-0.71753 z"
     id="path4563"
     inkscape:connector-curvature="0" /><path
     style="opacity:0.62599996;fill:#ea262a;fill-opacity:1;stroke-width:0.70710677"
     d="m 245.13082,331.76844 c -4.02555,-7.29204 -7.31918,-13.4877 -7.31918,-13.76813 0,-0.91283 26.22977,-16.10713 27.80557,-16.10713 0.55782,0 14.26728,26.05202 14.26728,27.11203 0,0.22304 -1.51144,1.26369 -3.35876,2.31257 -1.84731,1.04888 -7.87696,4.56248 -13.39922,7.80799 -5.52225,3.24551 -10.18357,5.90092 -10.35848,5.90092 -0.17492,0 -3.61166,-5.96621 -7.63721,-13.25825 z"
     id="path4565"
     inkscape:connector-curvature="0" /><path
     style="opacity:0.62599996;fill:#ea262a;fill-opacity:1;stroke-width:0.70710677"
     d="m 249.28274,338.83951 c -4.03927,-7.03082 -11.11755,-20.32094 -11.11755,-20.87423 0,-0.52855 13.10595,-8.4191 21.3157,-12.83331 l 6.11291,-3.28678 2.46296,4.44341 c 1.35462,2.44388 4.58945,8.53643 7.18849,13.53901 4.40506,8.47875 4.63869,9.1546 3.44495,9.96566 -3.41657,2.32132 -24.84627,14.52632 -25.5055,14.52632 -0.41448,0 -2.17036,-2.46604 -3.90196,-5.48008 z"
     id="path4567"
     inkscape:connector-curvature="0" /><path
     style="opacity:0.62599996;fill:#ea262a;fill-opacity:1;stroke-width:0.70710677"
     d="m 183.66813,355.5734 -3.19218,-15.41604 4.97977,-1.20758 c 2.73887,-0.66416 9.10588,-2.57538 14.14892,-4.24715 5.04303,-1.67177 9.22951,-2.97609 9.30327,-2.89849 0.28264,0.29733 10.82466,27.06067 11.02008,27.977 0.25988,1.21862 -11.89503,5.68604 -24.20902,8.89778 l -8.85865,2.31052 z"
     id="path4569"
     inkscape:connector-curvature="0" /><path
     style="opacity:0.62599996;fill:#ea262a;fill-opacity:1;stroke-width:0.70710677"
     d="m 183.87906,355.81007 c -1.65249,-8.06985 -3.00114,-14.87334 -2.99702,-15.11885 0.004,-0.24551 1.51894,-0.81616 3.36626,-1.26811 1.84732,-0.45194 8.0515,-2.29352 13.78708,-4.09238 5.73557,-1.79887 10.62436,-3.07463 10.86396,-2.83502 0.23961,0.2396 2.76637,6.40951 5.61503,13.71091 3.62012,9.27872 4.96618,13.53217 4.47119,14.1286 -1.29785,1.56381 -27.79994,10.14732 -31.33045,10.14732 -0.436,0 -2.0782,-6.38104 -3.77605,-14.67247 z"
     id="path4571"
     inkscape:connector-curvature="0" /><path
     style="opacity:0.62599996;fill:#ea262a;fill-opacity:1;stroke-width:0.70710677"
     d="m 139.42085,373.95359 c -6.13513,-0.54751 -24.22064,-3.87086 -24.93106,-4.58127 -0.27699,-0.27699 7.56815,-29.16383 8.11519,-29.88122 0.0974,-0.12776 3.42052,0.4398 7.38465,1.26125 3.96414,0.82145 10.19705,1.68992 13.85092,1.92993 l 6.6434,0.43639 v 15.80326 15.80325 l -2.2981,-0.0972 c -1.26395,-0.0535 -5.2082,-0.35694 -8.765,-0.67435 z"
     id="path4573"
     inkscape:connector-curvature="0" /><path
     style="opacity:0.62599996;fill:#ea262a;fill-opacity:1;stroke-width:0.70710677"
     d="m 140.94556,373.9238 c -5.97872,-0.57399 -24.81895,-3.88513 -25.89689,-4.55133 -0.4466,-0.27601 1.14188,-6.74517 5.76096,-23.46189 1.88575,-6.82463 0.91339,-6.49553 13.05731,-4.41942 4.54975,0.77782 10.14983,1.41421 12.44464,1.41421 h 4.17237 v 15.90991 15.9099 l -1.59099,-0.0956 c -0.87504,-0.0526 -4.45137,-0.37018 -7.9474,-0.70582 z"
     id="path4575"
     inkscape:connector-curvature="0" /></svg>